<?xml version="1.0" encoding="utf-8"?>
<svg version="1.1" id="Layer_1" x="0px" y="0px" viewBox="0 0 512 512" style="enable-background:new 0 0 512 512;" xmlns="http://www.w3.org/2000/svg">
  <g>
    <g>
      <path d="M144.276,403.147c-0.026-0.022-0.075-0.063-0.11-0.092c-4.414-3.669-10.94-3.069-14.643,1.329 c-3.718,4.415-3.123,11.031,1.291,14.748c1.96,1.651,4.35,2.457,6.726,2.457c2.976,0,5.931-1.264,7.998-3.719 C149.256,413.456,148.691,406.864,144.276,403.147z" style="fill: rgb(255, 255, 255);"/>
    </g>
  </g>
  <g>
    <g>
      <path d="M123.179,383.216C94.063,351.391,77.365,312.61,77.365,276.82c0-5.771-4.679-10.449-10.449-10.449 s-10.449,4.678-10.449,10.449c0,40.95,18.696,84.87,51.293,120.502c2.062,2.253,4.882,3.396,7.712,3.396 c2.518,0,5.045-0.905,7.05-2.74C126.781,394.083,127.075,387.474,123.179,383.216z" style="fill: rgb(255, 255, 255);"/>
    </g>
  </g>
  <g>
    <g>
      <path d="M435.097,138.587c-39.549-24.274-91.836-38.544-152.391-41.757c-1.085-17.215,6.283-33.921,20.09-44.735 c5.601-4.388,11.887-7.544,18.684-9.383c3.382-0.915,6.08-3.465,7.186-6.79c1.106-3.325,0.471-6.982-1.69-9.741L309.606,4.006 c-2.59-3.305-6.906-4.739-10.955-3.643C288.06,3.23,276.78,9.075,266.891,16.822c-24.429,19.135-36.569,49.549-32.592,79.775 c-62.676,2.677-116.761,17.051-157.394,41.99C26.593,169.464,0,214.977,0,270.205c0,28.028,7.008,57.959,20.266,86.556 c12.935,27.9,31.862,54.673,54.735,77.426c23.939,23.814,51.241,42.685,81.147,56.09C188.307,504.691,221.902,512,256,512 s67.693-7.309,99.853-21.724c29.906-13.405,57.208-32.276,81.147-56.09c22.873-22.753,41.8-49.526,54.735-77.426 C504.992,328.164,512,298.234,512,270.205C512,214.977,485.407,169.464,435.097,138.587z M279.778,33.274 c5.61-4.396,11.894-8.07,17.945-10.55L301.855,28c-4.189,2.141-8.179,4.693-11.945,7.641 c-18.764,14.698-29.015,37.181-28.16,60.526c-1.911-0.021-3.825-0.037-5.75-0.037c-0.217,0-0.432,0.004-0.648,0.004 C251.4,72.438,260.611,48.287,279.778,33.274z M175.341,125.292c1.197-0.367,2.272-0.938,3.216-1.651 c23.908-4.376,49.861-6.613,77.443-6.613c28.09,0,54.486,2.326,78.76,6.861c1.127,0.783,2.426,1.356,3.856,1.649 c25.259,5.176,51.626,26.725,62.167,60.019c-31.605-20.253-71.082-29.822-92.736-29.822c-4.498,0-8.491,2.878-9.912,7.145 c-1.422,4.266,0.045,8.965,3.643,11.663c5.012,3.76,26.195,21.264,35.678,54.736c-24.926-21.125-45.151-35.392-78.421-47.012 c-1.572-0.549-3.25-0.714-4.899-0.483c-25.523,3.584-52.866,26.832-74.836,45.513c-1.194,1.016-2.38,2.024-3.554,3.019 c11.341-38.245,31.951-57.488,32.177-57.694c3.285-2.957,4.355-7.66,2.672-11.747c-1.681-4.086-5.719-6.671-10.169-6.457 c-2.506,0.122-50.623,2.627-87.919,15.937C131.764,139.08,174.817,125.453,175.341,125.292z M422.261,419.371 c-46.5,46.257-105.545,71.731-166.261,71.731c-60.715,0-119.761-25.475-166.261-71.731 c-43.106-42.88-68.841-98.643-68.841-149.165c0-48.257,22.521-86.548,66.937-113.807c4.79-2.939,9.8-5.714,15.003-8.334 c-9.339,11.142-16.684,24.724-19.333,41.065c-0.665,4.1,1.162,8.205,4.653,10.454c3.491,2.25,7.983,2.22,11.442-0.078 c19.347-12.849,54.16-19.09,77.633-21.967c-10.656,16.071-23.288,41.677-27.909,77.111c-0.521,3.999,1.304,7.94,4.691,10.128 c3.387,2.188,7.731,2.232,11.162,0.113c7.936-4.901,17.077-12.674,27.663-21.673c19.113-16.251,42.713-36.318,61.836-40.323 c35.871,12.969,54.707,29.436,88.28,58.786c0.922,0.806,1.822,1.643,2.771,2.415c2.235,1.818,5.183,2.656,8.041,2.256 c5.307-0.743,9.281-5.541,9.002-10.893c-1.76-33.825-13.876-58.285-25.913-74.518c24.218,6.185,53.269,18.893,71.585,37.209 c3.059,3.057,7.685,3.916,11.64,2.157c3.952-1.761,6.41-5.773,6.184-10.094c-1.278-24.302-9.131-46.561-22.806-64.933 c7.278,3.409,14.191,7.118,20.71,11.119c44.414,27.26,66.935,65.551,66.935,113.808 C491.102,320.729,465.367,376.491,422.261,419.371z" style="fill: rgb(255, 255, 255);"/>
    </g>
  </g>
  <g/>
  <g/>
  <g/>
  <g/>
  <g/>
  <g/>
  <g/>
  <g/>
  <g/>
  <g/>
  <g/>
  <g/>
  <g/>
  <g/>
  <g/>
</svg>