<?xml version="1.0" standalone="no"?>
<!DOCTYPE svg PUBLIC "-//W3C//DTD SVG 20010904//EN"
 "http://www.w3.org/TR/2001/REC-SVG-20010904/DTD/svg10.dtd">
<svg version="1.0" xmlns="http://www.w3.org/2000/svg"
 width="700.000000pt" height="700.000000pt" viewBox="0 0 700.000000 700.000000"
 preserveAspectRatio="xMidYMid meet">
<metadata>
Created by potrace 1.11, written by Peter Selinger 2001-2013
</metadata>
<g transform="translate(0.000000,700.000000) scale(0.100000,-0.100000)"
fill="#000000" stroke="none">
<path d="M4010 6971 c-399 -150 -683 -460 -780 -850 -28 -111 -35 -177 -33
-318 l1 -123 -27 -1 c-14 0 -37 -2 -51 -4 -14 -1 -73 -6 -131 -9 -58 -4 -116
-8 -130 -11 -13 -2 -52 -6 -85 -9 -63 -6 -73 -7 -207 -26 -120 -18 -300 -51
-394 -74 -10 -3 -47 -11 -83 -20 -195 -46 -479 -142 -660 -223 -798 -357
-1279 -918 -1400 -1634 -38 -228 -34 -586 10 -799 5 -25 11 -58 14 -75 7 -48
62 -253 91 -340 73 -218 201 -493 315 -675 80 -128 262 -386 289 -410 3 -3 24
-27 46 -55 187 -233 530 -539 820 -732 263 -174 574 -324 880 -423 193 -62
462 -122 617 -136 35 -3 74 -8 88 -11 43 -9 481 -11 565 -2 164 16 176 18 325
45 466 84 928 277 1345 562 339 232 664 542 896 857 24 33 47 62 50 65 3 3 33
46 66 95 251 378 419 771 499 1165 26 126 28 138 41 265 10 90 10 389 0 480
-40 378 -193 749 -429 1036 -71 88 -237 252 -328 325 -339 272 -778 481 -1285
610 -77 20 -149 38 -160 40 -101 20 -289 54 -325 59 -25 3 -70 10 -100 15 -30
5 -86 12 -125 16 -38 3 -83 8 -100 10 -16 2 -77 7 -135 10 -58 4 -112 10 -122
15 -13 7 -15 21 -11 81 2 40 8 91 14 113 5 22 12 49 14 60 2 11 25 61 49 110
81 162 225 290 392 350 101 36 140 65 155 114 21 70 8 98 -137 283 -74 95
-147 179 -162 187 -47 25 -101 23 -182 -8z m110 -349 c-1 -4 -39 -31 -85 -61
-269 -172 -445 -479 -454 -791 -1 -41 -6 -77 -11 -80 -5 -3 -24 -5 -42 -5 -29
1 -33 5 -40 35 -22 97 2 303 48 427 81 218 228 381 449 500 l80 43 28 -30 c15
-17 27 -34 27 -38z m-170 -1236 c25 -2 79 -7 120 -10 71 -6 100 -9 180 -20 19
-3 58 -8 85 -11 28 -3 76 -11 108 -16 32 -6 73 -12 91 -14 18 -3 46 -11 62
-20 16 -8 36 -15 44 -15 27 0 174 -53 230 -83 30 -16 67 -36 81 -43 15 -8 32
-21 39 -29 7 -8 17 -15 22 -15 13 0 64 -43 154 -131 121 -118 230 -287 287
-447 l27 -72 -28 17 c-15 10 -29 20 -32 23 -17 18 -246 131 -355 175 -193 79
-429 146 -595 171 -19 3 -41 7 -48 9 -6 2 -63 7 -125 11 -122 7 -139 3 -189
-44 -31 -29 -43 -75 -34 -127 5 -25 23 -50 63 -87 119 -111 152 -145 211 -221
77 -97 147 -215 195 -328 35 -82 69 -180 64 -185 -1 -2 -19 12 -39 29 -55 49
-67 58 -184 146 -60 46 -116 88 -124 94 -28 22 -175 115 -246 155 -180 104
-456 215 -529 214 -183 -2 -504 -179 -851 -467 -33 -27 -80 -66 -105 -86 -24
-21 -60 -51 -79 -67 -19 -17 -36 -29 -38 -27 -3 2 10 46 28 97 75 221 226 483
369 642 74 82 89 117 76 175 -9 44 -49 87 -91 101 -32 11 -88 10 -229 -5 -16
-1 -59 -5 -95 -9 -36 -3 -74 -8 -86 -10 -11 -2 -45 -7 -75 -10 -30 -3 -65 -8
-79 -11 -14 -2 -68 -11 -120 -20 -52 -9 -123 -22 -156 -30 -34 -8 -73 -16 -87
-19 -41 -7 -208 -54 -270 -75 -63 -22 -63 -23 -3 58 143 196 421 390 731 510
44 18 89 36 100 42 21 10 44 15 110 24 22 3 65 10 95 15 30 5 78 12 105 15 28
3 73 8 100 11 28 3 66 7 85 9 19 2 91 7 160 11 69 3 126 8 128 9 5 5 689 -4
742 -9z m1710 -444 c426 -232 729 -532 895 -887 217 -463 210 -1057 -21 -1642
-48 -122 -162 -359 -208 -431 -14 -23 -26 -44 -26 -47 0 -3 -4 -11 -10 -18 -5
-7 -33 -48 -62 -92 -50 -78 -178 -253 -208 -286 -8 -9 -37 -43 -65 -77 -74
-90 -306 -317 -423 -414 -298 -248 -632 -442 -987 -573 -88 -32 -240 -81 -280
-89 -11 -3 -58 -14 -105 -25 -77 -18 -199 -40 -320 -56 -138 -18 -371 -23
-540 -12 -139 9 -233 22 -381 51 -133 27 -156 33 -289 72 -63 19 -124 39 -135
43 -11 5 -58 23 -105 41 -117 44 -352 158 -458 221 -271 163 -482 328 -707
554 -336 336 -571 683 -744 1098 -63 153 -137 400 -155 521 -4 21 -8 48 -11
60 -37 172 -37 501 0 686 3 14 8 39 11 55 2 17 16 70 30 118 117 412 382 750
802 1021 56 36 104 66 107 66 2 0 26 13 52 28 80 47 84 44 33 -24 -100 -133
-193 -354 -205 -487 -7 -72 12 -113 67 -147 47 -28 94 -25 158 10 207 115 437
190 750 245 265 47 305 51 295 34 -5 -8 -23 -36 -41 -64 -126 -199 -248 -521
-304 -805 -28 -141 -32 -215 -13 -254 31 -65 114 -96 180 -66 59 27 255 178
433 334 20 17 53 45 74 61 22 17 49 39 60 50 37 36 238 186 331 248 111 73
183 110 275 141 l72 24 86 -35 c168 -68 376 -176 459 -239 17 -13 36 -24 42
-24 6 0 11 -4 11 -8 0 -5 10 -14 23 -20 24 -11 202 -149 288 -223 30 -25 87
-74 128 -109 41 -35 104 -90 140 -123 75 -67 104 -84 146 -88 58 -5 111 26
142 85 11 22 13 49 8 124 -3 53 -8 99 -10 102 -1 3 -6 27 -9 54 -7 46 -27 146
-42 206 -13 51 -77 225 -106 288 -35 74 -119 221 -155 270 -30 40 -23 40 88 6
217 -68 475 -186 629 -290 89 -60 230 -172 230 -183 0 -14 60 -42 92 -43 46
-1 79 10 110 40 37 34 50 79 44 144 -3 29 -8 76 -11 103 -23 214 -131 504
-255 686 l-39 58 37 -16 c20 -8 66 -31 102 -51z"/>
<path d="M847 3339 c-55 -28 -71 -68 -71 -169 0 -81 8 -191 20 -255 52 -297
127 -511 273 -780 105 -194 249 -398 377 -533 59 -62 75 -73 109 -77 59 -7
102 11 136 57 31 44 39 101 17 141 -6 12 -43 60 -83 107 -338 401 -531 836
-560 1265 -11 150 -15 176 -36 204 -41 55 -118 72 -182 40z"/>
<path d="M1813 1504 c-68 -34 -92 -123 -54 -194 49 -93 185 -96 240 -6 76 122
-57 264 -186 200z"/>
</g>
</svg>
